<svg width="28" height="23" viewBox="0 0 28 23" fill="none" xmlns="http://www.w3.org/2000/svg">
    <path fill-rule="evenodd" clip-rule="evenodd"
        d="M16.839 10.1716C18.4011 11.7337 18.0107 12 17.5107 13C15.9494 8.96705 12.0669 9.29057 10.5106 13C9.83915 12.229 9.62002 11.7337 11.1821 10.1716C12.7442 8.60948 15.2769 8.60948 16.839 10.1716Z"
        stroke="#828282" stroke-width="1.96889" stroke-linecap="round" stroke-linejoin="round" />
    <path fill-rule="evenodd" clip-rule="evenodd"
        d="M2.16228 12.291C1.94591 11.8899 1.94591 11.4034 2.16228 11.0024C4.76983 6.18007 9.58663 2 14.4034 2C19.2202 2 24.037 6.18007 26.6446 11.0038C26.8609 11.4048 26.8609 11.8913 26.6446 12.2924C24.037 17.1147 19.2202 21.2948 14.4034 21.2948C9.58663 21.2948 4.76983 17.1147 2.16228 12.291Z"
        stroke="#828282" stroke-width="2.06729" stroke-linecap="round" stroke-linejoin="round" />
</svg>