<svg width="99" height="24" viewBox="0 0 99 24" fill="none" xmlns="http://www.w3.org/2000/svg">
    <path
        d="M15.016 7.38948V6.45648C15.016 4.42148 13.366 2.77148 11.331 2.77148H6.45597C4.42197 2.77148 2.77197 4.42148 2.77197 6.45648V17.5865C2.77197 19.6215 4.42197 21.2715 6.45597 21.2715H11.341C13.37 21.2715 15.016 19.6265 15.016 17.5975V16.6545"
        stroke="#CF3636" stroke-width="1.5" stroke-linecap="round" stroke-linejoin="round" />
    <path d="M21.8096 12.0215H9.76855" stroke="#CF3636" stroke-width="1.5" stroke-linecap="round"
        stroke-linejoin="round" />
    <path d="M18.8813 9.10547L21.8093 12.0205L18.8813 14.9365" stroke="#CF3636" stroke-width="1.5"
        stroke-linecap="round" stroke-linejoin="round" />
    <path
        d="M43.024 16.528H46.784V18H41.2V6.88H43.024V16.528ZM52.1334 18.144C51.3014 18.144 50.5494 17.9573 49.8774 17.584C49.2054 17.2 48.6774 16.6667 48.2934 15.984C47.9094 15.2907 47.7174 14.4907 47.7174 13.584C47.7174 12.688 47.9147 11.8933 48.3094 11.2C48.704 10.5067 49.2427 9.97333 49.9254 9.6C50.608 9.22667 51.3707 9.04 52.2134 9.04C53.056 9.04 53.8187 9.22667 54.5014 9.6C55.184 9.97333 55.7227 10.5067 56.1174 11.2C56.512 11.8933 56.7094 12.688 56.7094 13.584C56.7094 14.48 56.5067 15.2747 56.1014 15.968C55.696 16.6613 55.1414 17.2 54.4374 17.584C53.744 17.9573 52.976 18.144 52.1334 18.144ZM52.1334 16.56C52.6027 16.56 53.04 16.448 53.4454 16.224C53.8614 16 54.1974 15.664 54.4534 15.216C54.7094 14.768 54.8374 14.224 54.8374 13.584C54.8374 12.944 54.7147 12.4053 54.4694 11.968C54.224 11.52 53.8987 11.184 53.4934 10.96C53.088 10.736 52.6507 10.624 52.1814 10.624C51.712 10.624 51.2747 10.736 50.8694 10.96C50.4747 11.184 50.16 11.52 49.9254 11.968C49.6907 12.4053 49.5734 12.944 49.5734 13.584C49.5734 14.5333 49.8134 15.2693 50.2934 15.792C50.784 16.304 51.3974 16.56 52.1334 16.56ZM62.0645 9.04C62.7472 9.04 63.3498 9.17867 63.8725 9.456C64.4058 9.72267 64.8218 10.0587 65.1205 10.464V9.184H66.9605V18.144C66.9605 18.9547 66.7898 19.6747 66.4485 20.304C66.1072 20.944 65.6112 21.4453 64.9605 21.808C64.3205 22.1707 63.5525 22.352 62.6565 22.352C61.4618 22.352 60.4698 22.0693 59.6805 21.504C58.8912 20.9493 58.4432 20.192 58.3365 19.232H60.1445C60.2832 19.6907 60.5765 20.0587 61.0245 20.336C61.4832 20.624 62.0272 20.768 62.6565 20.768C63.3925 20.768 63.9845 20.544 64.4325 20.096C64.8912 19.648 65.1205 18.9973 65.1205 18.144V16.672C64.8112 17.088 64.3898 17.44 63.8565 17.728C63.3338 18.0053 62.7365 18.144 62.0645 18.144C61.2965 18.144 60.5925 17.952 59.9525 17.568C59.3232 17.1733 58.8218 16.6293 58.4485 15.936C58.0858 15.232 57.9045 14.4373 57.9045 13.552C57.9045 12.6667 58.0858 11.8827 58.4485 11.2C58.8218 10.5173 59.3232 9.98933 59.9525 9.616C60.5925 9.232 61.2965 9.04 62.0645 9.04ZM65.1205 13.584C65.1205 12.976 64.9925 12.448 64.7365 12C64.4912 11.552 64.1658 11.2107 63.7605 10.976C63.3552 10.7413 62.9178 10.624 62.4485 10.624C61.9792 10.624 61.5418 10.7413 61.1365 10.976C60.7312 11.2 60.4005 11.536 60.1445 11.984C59.8992 12.4213 59.7765 12.944 59.7765 13.552C59.7765 14.16 59.8992 14.6933 60.1445 15.152C60.4005 15.6107 60.7312 15.9627 61.1365 16.208C61.5525 16.4427 61.9898 16.56 62.4485 16.56C62.9178 16.56 63.3552 16.4427 63.7605 16.208C64.1658 15.9733 64.4912 15.632 64.7365 15.184C64.9925 14.7253 65.1205 14.192 65.1205 13.584ZM77.3365 18.144C76.5045 18.144 75.7525 17.9573 75.0805 17.584C74.4085 17.2 73.8805 16.6667 73.4965 15.984C73.1125 15.2907 72.9205 14.4907 72.9205 13.584C72.9205 12.688 73.1178 11.8933 73.5125 11.2C73.9072 10.5067 74.4458 9.97333 75.1285 9.6C75.8112 9.22667 76.5738 9.04 77.4165 9.04C78.2592 9.04 79.0218 9.22667 79.7045 9.6C80.3872 9.97333 80.9258 10.5067 81.3205 11.2C81.7152 11.8933 81.9125 12.688 81.9125 13.584C81.9125 14.48 81.7098 15.2747 81.3045 15.968C80.8992 16.6613 80.3445 17.2 79.6405 17.584C78.9472 17.9573 78.1792 18.144 77.3365 18.144ZM77.3365 16.56C77.8058 16.56 78.2432 16.448 78.6485 16.224C79.0645 16 79.4005 15.664 79.6565 15.216C79.9125 14.768 80.0405 14.224 80.0405 13.584C80.0405 12.944 79.9178 12.4053 79.6725 11.968C79.4272 11.52 79.1018 11.184 78.6965 10.96C78.2912 10.736 77.8538 10.624 77.3845 10.624C76.9152 10.624 76.4778 10.736 76.0725 10.96C75.6778 11.184 75.3632 11.52 75.1285 11.968C74.8938 12.4053 74.7765 12.944 74.7765 13.584C74.7765 14.5333 75.0165 15.2693 75.4965 15.792C75.9872 16.304 76.6005 16.56 77.3365 16.56ZM91.6996 9.184V18H89.8756V16.96C89.5876 17.3227 89.209 17.6107 88.7396 17.824C88.281 18.0267 87.7903 18.128 87.2676 18.128C86.5743 18.128 85.9503 17.984 85.3956 17.696C84.8516 17.408 84.4196 16.9813 84.0996 16.416C83.7903 15.8507 83.6356 15.168 83.6356 14.368V9.184H85.4436V14.096C85.4436 14.8853 85.641 15.4933 86.0356 15.92C86.4303 16.336 86.969 16.544 87.6516 16.544C88.3343 16.544 88.873 16.336 89.2676 15.92C89.673 15.4933 89.8756 14.8853 89.8756 14.096V9.184H91.6996ZM96.2343 10.672V15.552C96.2343 15.8827 96.3089 16.1227 96.4583 16.272C96.6183 16.4107 96.8849 16.48 97.2583 16.48H98.3783V18H96.9383C96.1169 18 95.4876 17.808 95.0503 17.424C94.6129 17.04 94.3943 16.416 94.3943 15.552V10.672H93.3543V9.184H94.3943V6.992H96.2343V9.184H98.3783V10.672H96.2343Z"
        fill="#CF3636" />
</svg>